<svg xmlns="http://www.w3.org/2000/svg" width="109" height="42" viewBox="0 0 109 42" fill="none"> <g clip-path="url(#clip0_661_37)"> <path fill-rule="evenodd" clip-rule="evenodd" d="M109 40V20L89 30.8144V20L69 30.8144V40H109Z" fill="url(#paint0_linear_661_37)"/> <path d="M102.657 40V33.844V9.195L89 16.5865V10.8144L109 0V33.844V40H102.657Z" fill="white"/> <path d="M102.657 40V33.844V9.195L89 16.5865V10.8144L109 0V33.844V40H102.657Z" fill="url(#paint1_linear_661_37)"/> </g> <path d="M11.4234 6.28757V19.8299H8.93835V8.43898H2.67765V19.8299H0.192637V6.28757H11.4234Z" fill="#ffffff"/> <path d="M12.9571 14.8932C12.9571 13.3821 13.413 12.1911 14.3248 11.3203C15.2366 10.4367 16.4246 9.99491 17.8886 9.99491C19.3526 9.99491 20.5277 10.4175 21.4139 11.2627C22.3128 12.1079 22.7623 13.254 22.7623 14.7011V15.5079H15.3073C15.3329 16.2635 15.577 16.8717 16.0393 17.3328C16.5145 17.781 17.2272 18.0051 18.1775 18.0051C19.5517 18.0051 20.3672 17.4864 20.624 16.4491H23.1091C22.9421 17.3328 22.4412 18.1523 21.6065 18.9079C20.7717 19.6506 19.6287 20.022 18.1775 20.022C16.4695 20.022 15.1724 19.5354 14.2863 18.5621C13.4002 17.5889 12.9571 16.3659 12.9571 14.8932ZM15.3073 14.0096H20.4121C20.4121 13.4333 20.2002 12.9595 19.7764 12.5881C19.3655 12.2168 18.7362 12.0311 17.8886 12.0311C17.041 12.0311 16.3989 12.2232 15.9622 12.6073C15.5256 12.9787 15.3073 13.4461 15.3073 14.0096Z" fill="#ffffff"/> <path d="M24.7802 10.187H27.2652V11.109L26.8221 12.5881H27.4578C28.0357 10.8593 29.32 9.99491 31.3106 9.99491C32.659 9.99491 33.7185 10.4751 34.4891 11.4356C35.2725 12.3832 35.6642 13.5806 35.6642 15.0277C35.6642 16.4619 35.2725 17.6529 34.4891 18.6005C33.7185 19.5482 32.659 20.022 31.3106 20.022C29.32 20.022 28.0357 19.164 27.4578 17.448H26.8221L27.2652 18.9079V23.422H24.7802V10.187ZM27.2652 15.0277C27.2652 15.9881 27.5285 16.7053 28.055 17.1791C28.5944 17.6401 29.3264 17.8706 30.2511 17.8706C31.1757 17.8706 31.8949 17.6401 32.4086 17.1791C32.9223 16.7053 33.1791 15.9881 33.1791 15.0277C33.1791 14.0544 32.9223 13.3309 32.4086 12.8571C31.8949 12.3832 31.1757 12.1463 30.2511 12.1463C29.3264 12.1463 28.5944 12.3832 28.055 12.8571C27.5285 13.3309 27.2652 14.0544 27.2652 15.0277Z" fill="#ffffff"/> <path d="M37.7794 19.8299V10.187H41.8826C43.1925 10.187 44.1878 10.3535 44.8685 10.6864C45.5491 11.0194 45.8894 11.6149 45.8894 12.4729C45.8894 13.7151 45.2152 14.3874 43.8667 14.4898V15.1429C45.6904 15.1685 46.6022 15.8921 46.6022 17.3135C46.6022 18.9911 45.2666 19.8299 42.5953 19.8299H37.7794ZM40.1296 13.9904H41.8826C42.5247 13.9904 42.9613 13.9328 43.1925 13.8175C43.4237 13.6894 43.5393 13.4013 43.5393 12.9531C43.5393 12.5433 43.4172 12.2744 43.1732 12.1463C42.9292 12.0183 42.499 11.9542 41.8826 11.9542H40.1296V13.9904ZM40.1296 18.0627H42.5953C43.1989 18.0627 43.6227 17.9859 43.8667 17.8322C44.1236 17.6785 44.252 17.3776 44.252 16.9294C44.252 16.4683 44.1236 16.161 43.8667 16.0073C43.6227 15.8409 43.1989 15.7576 42.5953 15.7576H40.1296V18.0627Z" fill="#ffffff"/> <path d="M52.6432 12.5497C55.6226 12.5497 57.1123 13.7599 57.1123 16.1802C57.1123 18.6134 55.6226 19.8299 52.6432 19.8299H48.54V10.187H51.025V12.5497H52.6432ZM58.5378 19.8299V10.187H61.0229V19.8299H58.5378ZM51.025 17.6785H52.4505C53.2467 17.6785 53.8054 17.5889 54.1265 17.4096C54.4604 17.2175 54.6273 16.8077 54.6273 16.1802C54.6273 15.5655 54.4604 15.1685 54.1265 14.9893C53.8054 14.7972 53.2467 14.7011 52.4505 14.7011H51.025V17.6785Z" fill="#ffffff"/> <path d="M72.1827 5.5C72.1827 6.55009 71.9002 7.4145 71.3351 8.09322C70.7829 8.77194 69.961 9.11129 68.8693 9.11129C67.7649 9.11129 66.9301 8.77194 66.3651 8.09322C65.8128 7.4145 65.5367 6.55009 65.5367 5.5H67.4438C67.4438 6.16591 67.5594 6.63974 67.7906 6.92147C68.0217 7.2032 68.3813 7.34407 68.8693 7.34407C69.3574 7.34407 69.7105 7.2032 69.9288 6.92147C70.16 6.63974 70.2756 6.16591 70.2756 5.5H72.1827ZM74.0513 19.8299H71.5855V12.1847L72.0286 10.8401H71.3929L68.4263 19.8299H63.5333V10.187H66.0183V17.7746L65.5753 19.196H66.211L69.1776 10.187H74.0513V19.8299Z" fill="#ffffff"/> <path d="M0 33.7011H2.48502C2.48502 34.9049 2.75471 35.7437 3.29409 36.2175C3.83347 36.6785 4.75171 36.909 6.0488 36.909C7.11472 36.909 7.88527 36.7426 8.36044 36.4096C8.84846 36.0767 9.09246 35.558 9.09246 34.8537C9.09246 33.5603 8.37328 32.9136 6.93493 32.9136H5.04709V30.7622H6.93493C8.24486 30.7622 8.89983 30.2051 8.89983 29.091C8.89983 28.4891 8.6815 28.0409 8.24486 27.7463C7.82106 27.439 7.08904 27.2853 6.0488 27.2853C4.80308 27.2853 3.92979 27.4838 3.42894 27.8808C2.92808 28.2778 2.67765 28.9373 2.67765 29.8593H0.192637C0.192637 28.2714 0.712757 27.0868 1.753 26.3057C2.79324 25.5245 4.22517 25.1339 6.0488 25.1339C7.69263 25.1339 8.98972 25.4541 9.94007 26.0944C10.9032 26.7347 11.3848 27.6247 11.3848 28.7644C11.3848 29.6352 11.128 30.2691 10.6143 30.6661C10.1134 31.0631 9.375 31.3448 8.39897 31.5113V32.1452C8.89983 32.2349 9.31078 32.3309 9.63185 32.4333C9.96575 32.5358 10.2932 32.6959 10.6143 32.9136C10.9482 33.1185 11.1922 33.4066 11.3463 33.778C11.5004 34.1494 11.5775 34.6104 11.5775 35.161C11.5775 36.416 11.0766 37.3829 10.0749 38.0616C9.0732 38.7275 7.73116 39.0605 6.0488 39.0605C4.1738 39.0605 2.69692 38.6379 1.61815 37.7927C0.539384 36.9347 0 35.5708 0 33.7011Z" fill="#ffffff"/> <path d="M13.5026 36.2175C13.5026 35.3851 13.7788 34.7256 14.331 34.239C14.896 33.7524 15.8207 33.4322 17.105 33.2785L20.4568 32.8752C20.4183 31.6714 19.6734 31.0695 18.2222 31.0695C17.5416 31.0695 16.9958 31.2232 16.5848 31.5305C16.1867 31.8251 15.9877 32.2733 15.9877 32.8752H13.6375C13.6375 31.7354 14.0613 30.8134 14.9089 30.1091C15.7565 29.3919 16.8609 29.0333 18.2222 29.0333C19.6221 29.0333 20.7586 29.4175 21.6319 30.1859C22.5052 30.9414 22.9419 32.03 22.9419 33.4514V36.717H24.3481V38.8684H22.3832C21.9594 38.8684 21.6319 38.7531 21.4008 38.5226C21.1824 38.2921 21.0733 37.9719 21.0733 37.5622V37.2356L21.4585 36.1407H20.8036C20.3413 38.0872 19.0442 39.0605 16.9123 39.0605C16.2188 39.0605 15.6281 38.9644 15.1401 38.7723C14.6649 38.5802 14.3181 38.3241 14.0998 38.004C13.8815 37.6838 13.7274 37.3829 13.6375 37.1011C13.5476 36.8066 13.5026 36.5121 13.5026 36.2175ZM15.9877 35.7949C15.9877 36.1663 16.1097 36.448 16.3537 36.6401C16.6105 36.8194 16.9444 36.909 17.3554 36.909C18.2929 36.909 19.0442 36.6785 19.6092 36.2175C20.1743 35.7437 20.4568 35.129 20.4568 34.3735L17.548 34.7384C16.9958 34.8025 16.5977 34.9113 16.3537 35.065C16.1097 35.2058 15.9877 35.4492 15.9877 35.7949Z" fill="#ffffff"/> <path d="M25.7584 38.8684V29.2254H29.8616C31.1715 29.2254 32.1668 29.3919 32.8475 29.7249C33.5281 30.0578 33.8684 30.6533 33.8684 31.5113C33.8684 32.7535 33.1942 33.4258 31.8457 33.5283V34.1814C33.6694 34.207 34.5812 34.9305 34.5812 36.352C34.5812 38.0296 33.2456 38.8684 30.5743 38.8684H25.7584ZM28.1086 33.0288H29.8616C30.5037 33.0288 30.9403 32.9712 31.1715 32.8559C31.4027 32.7279 31.5183 32.4397 31.5183 31.9915C31.5183 31.5817 31.3963 31.3128 31.1522 31.1848C30.9082 31.0567 30.478 30.9927 29.8616 30.9927H28.1086V33.0288ZM28.1086 37.1011H30.5743C31.1779 37.1011 31.6017 37.0243 31.8457 36.8706C32.1026 36.717 32.231 36.416 32.231 35.9678C32.231 35.5068 32.1026 35.1994 31.8457 35.0458C31.6017 34.8793 31.1779 34.7961 30.5743 34.7961H28.1086V37.1011Z" fill="#ffffff"/> <path d="M37.617 37.7158C36.6282 36.8194 36.1337 35.5964 36.1337 34.0469C36.1337 32.4974 36.6282 31.2744 37.617 30.378C38.6059 29.4816 39.8837 29.0333 41.4505 29.0333C43.0044 29.0333 44.2758 29.4816 45.2647 30.378C46.2536 31.2744 46.748 32.4974 46.748 34.0469C46.748 35.5964 46.2536 36.8194 45.2647 37.7158C44.2758 38.6122 43.0044 39.0605 41.4505 39.0605C39.8837 39.0605 38.6059 38.6122 37.617 37.7158ZM39.37 31.9531C38.8692 32.4654 38.6187 33.1633 38.6187 34.0469C38.6187 34.9305 38.8692 35.6284 39.37 36.1407C39.8709 36.6529 40.5644 36.909 41.4505 36.909C42.3366 36.909 43.0301 36.6529 43.531 36.1407C44.0318 35.6284 44.2823 34.9305 44.2823 34.0469C44.2823 33.1633 44.0318 32.4654 43.531 31.9531C43.0301 31.4409 42.3366 31.1848 41.4505 31.1848C40.5644 31.1848 39.8709 31.4409 39.37 31.9531Z" fill="#ffffff"/> <path d="M58.7692 36.717V41.5H56.2841V38.8684H49.8308V41.5H47.3458V36.717H48.6172C49.1309 35.8846 49.4969 34.8985 49.7152 33.7588C49.9335 32.619 50.0427 31.1079 50.0427 29.2254H57.4978V36.717H58.7692ZM51.1022 36.717H55.0127V31.3769H52.4699C52.3415 33.6819 51.8856 35.462 51.1022 36.717Z" fill="#ffffff"/> <defs> <linearGradient id="paint0_linear_661_37" x1="89" y1="20" x2="89.0247" y2="40" gradientUnits="userSpaceOnUse"> <stop stop-color="#313034"/> <stop offset="1" stop-color="#313034" stop-opacity="0"/> </linearGradient> <linearGradient id="paint1_linear_661_37" x1="109" y1="-2.98023e-07" x2="109" y2="40" gradientUnits="userSpaceOnUse"> <stop offset="0.36381" stop-color="#DB1F2E"/> <stop offset="1" stop-color="#DB1F2E" stop-opacity="0"/> </linearGradient> <clipPath id="clip0_661_37"> <rect width="40" height="40" fill="white" transform="translate(69)"/> </clipPath> </defs> </svg>